<svg viewBox="0 0 52 52" xml:space="preserve" xmlns="http://www.w3.org/2000/svg"><path d="m33.32 8.74-.82-1.2-.82 1.2c-.13.18-3.13 4.67-3.18 17.18v15.99h.05c-.07.32-.07.67.02 1l.6 2.42c-.41.37-.67.91-.67 1.5v1.47a2 2 0 0 0 2 2h4a2 2 0 0 0 2-2v-1.47c0-.59-.26-1.13-.67-1.5l.6-2.42c.09-.33.09-.68.02-1h.05V25.92c-.05-12.51-3.05-17-3.18-17.18zM21.28 2.68l-.78-.98-.78.98c-.154.192-3.343 4.364-4.059 15.56l-.16.18V40.8h.06c-.09.37-.08.77.03 1.15l.78 2.7c-.52.36-.87.97-.87 1.65v2a2 2 0 0 0 2 2h6a2 2 0 0 0 2-2v-2c0-.68-.35-1.29-.87-1.65l.78-2.7c.11-.38.12-.78.03-1.15h.06V18.42l-.162-.18C24.623 7.044 21.434 2.872 21.28 2.68z" fill="#ffffff" class="fill-000000"></path></svg>