<svg viewBox="0 0 60 60" xmlns="http://www.w3.org/2000/svg"><path d="M36.371.071a1.003 1.003 0 0 0-1.132.28l-35 41a1.001 1.001 0 0 0-.144 1.075l8 17A1 1 0 0 0 9 60h35a1.002 1.002 0 0 0 .683-.269l15-14A1.003 1.003 0 0 0 60 45C60 26.727 46.688 4.198 36.371.071ZM57.95 43.098 41.79 32.325l-5.777-12.52.908-17.258c9.194 4.977 20.218 24.13 21.03 40.55ZM34.021 19.565 23.415 30.17 4.82 39.064 34.846 3.892Zm-9.21 12.038 9.882-9.882 5.332 11.552L42.878 58H10.671Zm17.43 3.426L57.392 45.13 44.766 56.917ZM2.327 42.474l19.347-9.253L9.058 56.774Z" data-name="Layer 1" fill="#ffffff" class="fill-000000"></path></svg>